IKoutput_20to65secs_10hz.mot
version=1
nRows=22
nColumns=19
inDegrees=yes
endheader
time	/jointset/ground_pelvis/pelvis_tilt/value	/jointset/ground_pelvis/pelvis_list/value	/jointset/ground_pelvis/pelvis_rotation/value	/jointset/ground_pelvis/pelvis_tx/value	/jointset/ground_pelvis/pelvis_ty/value	/jointset/ground_pelvis/pelvis_tz/value	/jointset/hip_r/hip_flexion_r/value	/jointset/hip_r/hip_adduction_r/value	/jointset/hip_r/hip_rotation_r/value	/jointset/walker_knee_r/knee_angle_r/value	/jointset/patellofemoral_r/knee_angle_r_beta/value	/jointset/ankle_r/ankle_angle_r/value	/jointset/hip_l/hip_flexion_l/value	/jointset/hip_l/hip_adduction_l/value	/jointset/hip_l/hip_rotation_l/value	/jointset/walker_knee_l/knee_angle_l/value	/jointset/patellofemoral_l/knee_angle_l_beta/value	/jointset/ankle_l/ankle_angle_l/value
31.25000000	-3.33611605	2.04224840	-3.86929329	9.23701713	0.96486779	-0.55971669	22.22047344	-8.43775181	-6.43791114	56.37546278	0.98393744	-3.58711167	4.44282074	5.88350111	-4.22582483	0.21309431	0.00371920	-0.71620261
31.26000000	-3.45647530	2.02319052	-4.00729890	9.24313112	0.96517352	-0.56003343	23.01139071	-8.29706677	-6.49608638	55.63037698	0.97093324	-2.59793419	4.15902852	5.91015336	-4.40420253	0.22111288	0.00385915	-0.35768335
31.27000000	-3.58258095	2.00920345	-4.13582479	9.24919304	0.96542074	-0.56033029	23.76359558	-8.16421104	-6.59639238	54.72764801	0.95517765	-1.56855398	3.89158649	5.94045646	-4.58184143	0.23208143	0.00405058	-0.04439830
31.28000000	-3.71240148	2.00174482	-4.25556126	9.25520963	0.96560874	-0.56060314	24.47235885	-8.03979110	-6.73745168	53.66755944	0.93667561	-0.55339791	3.63678138	5.97529497	-4.75103711	0.24660688	0.00430410	0.22687180
31.29000000	-3.84340451	2.00149403	-4.37034987	9.26119279	0.96574309	-0.56084456	25.13395763	-7.92335713	-6.91244577	52.45180474	0.91545669	0.40872744	3.38998274	6.01455827	-4.90825581	0.26544843	0.00463295	0.46342364
31.30000000	-3.97391291	2.00813832	-4.48481296	9.26715048	0.96583186	-0.56104581	25.74738379	-7.81373357	-7.11248496	51.08520736	0.89160507	1.29918592	3.14863286	6.05727264	-5.05760581	0.28969259	0.00505609	0.67545298
31.31000000	-4.10381482	2.02016163	-4.60256770	9.27308362	0.96587904	-0.56119756	26.31434677	-7.70775833	-7.32664781	49.57576399	0.86526031	2.11095417	2.91354585	6.10153042	-5.20801560	0.32106174	0.00560358	0.87716207
31.32000000	-4.23404325	2.03530412	-4.72530049	9.27899119	0.96588255	-0.56129021	26.83652038	-7.59903316	-7.54047392	47.93189146	0.83656932	2.82667282	2.68771629	6.14478883	-5.36695857	0.36228593	0.00632308	1.08466635
31.33000000	-4.36530340	2.05138929	-4.85154814	9.28487725	0.96583944	-0.56131659	27.31162147	-7.47928288	-7.73906890	46.15784199	0.80560632	3.40208766	2.47390564	6.18445345	-5.53507497	0.41739915	0.00728499	1.31079096
31.34000000	-4.49724206	2.06681345	-4.97591042	9.29075270	0.96575078	-0.56127650	27.73224801	-7.34250883	-7.91528725	44.25220705	0.77234672	3.78048665	2.27337331	6.21841337	-5.70560463	0.49193522	0.00858589	1.56228137
31.35000000	-4.62894635	2.08051816	-5.09066454	9.29663098	0.96561967	-0.56117757	28.08910894	-7.18793323	-8.07539767	42.21157235	0.73673092	3.92307956	2.08690357	6.24521552	-5.86943971	0.59299433	0.01034970	1.83950724
31.36000000	-4.75986914	2.09192711	-5.18816309	9.30252475	0.96544738	-0.56103194	28.37467376	-7.01976918	-8.23895149	40.03453519	0.69873445	3.82342623	1.91619866	6.26408804	-6.01987755	0.72900978	0.01272362	2.13808826
31.37000000	-4.88995966	2.10078429	-5.26159194	9.30844519	0.96523331	-0.56085045	28.58390845	-6.84449086	-8.43401086	37.72289097	0.65838865	3.50377688	1.76385922	6.27453470	-6.15226636	0.90893594	0.01586393	2.45471648
31.38000000	-5.01913329	2.10645013	-5.30545438	9.31440162	0.96497735	-0.56063482	28.71383928	-6.66624663	-8.68685093	35.28327626	0.61580934	3.00554872	1.63207117	6.27513844	-6.26208025	1.14036195	0.01990307	2.79259614
31.39000000	-5.14679456	2.10751403	-5.31712240	9.32040277	0.96468078	-0.56037420	28.76452521	-6.48340111	-9.00839817	32.73064989	0.57125760	2.37684521	1.52092604	6.26310971	-6.34602422	1.42693182	0.02490466	3.15880502
31.40000000	-5.27194003	2.10252135	-5.29784096	9.32645733	0.96434362	-0.56005052	28.74092204	-6.28912806	-9.38544519	30.09008858	0.52517112	1.66279272	1.42808572	6.23552270	-6.40463683	1.76737342	0.03084649	3.55764668
31.41000000	-5.39364151	2.09062777	-5.25152492	9.33257267	0.96396187	-0.55964571	28.65307828	-6.07466689	-9.78159442	27.39505440	0.47813390	0.90329822	1.35013018	6.19033391	-6.44238278	2.15732111	0.03765236	3.98909848
31.42000000	-5.51108969	2.07141766	-5.18200216	9.33875538	0.96352911	-0.55914529	28.51418732	-5.83271978	-10.14383980	24.68457327	0.43082708	0.13501116	1.28345054	6.12627044	-6.46356714	2.59161846	0.04523228	4.45127320
31.43000000	-5.62315538	2.04479793	-5.09150765	9.34501385	0.96304048	-0.55854134	28.33837192	-5.56001070	-10.40978375	22.00110384	0.38399170	-0.60576088	1.22393748	6.04290012	-6.46861420	3.06526896	0.05349904	4.94174748
31.44000000	-5.72825508	2.01124045	-4.98199102	9.35135884	0.96249472	-0.55783516	28.13917045	-5.25851835	-10.51670572	19.38783169	0.33838150	-1.28367431	1.16695134	5.94117556	-6.45579833	3.57356718	0.06237051	5.45729464
31.45000000	-5.82474677	1.97197239	-4.85715442	9.35780113	0.96189351	-0.55703668	27.92886555	-4.93556846	-10.41337857	16.88569008	0.29471089	-1.86860163	1.10804213	5.82377115	-6.42517226	4.11206777	0.07176912	5.99425040
31.46000000	-5.91117089	1.92878163	-4.72262160	9.36435096	0.96124023	-0.55615993	27.71810629	-4.60294627	-10.07225991	14.53185994	0.25362880	-2.33711780	1.04346897	5.69455389	-6.37981029	4.67704533	0.08162984	6.54995184
